<?xml version="1.0" encoding="UTF-8"?> <svg xmlns="http://www.w3.org/2000/svg" width="52" height="64" viewBox="0 0 52 64"><g fill="#000" fill-rule="nonzero"><path d="M46.283 21.325l2.665-2.691a3.78 3.78 0 0 0 0-5.303 3.693 3.693 0 0 0-5.252 0l-2.846 2.873a25.875 25.875 0 0 0-9.898-4.225V8.25h2.477c.683 0 1.238-.56 1.238-1.25V3.75C34.667 1.682 33 0 30.952 0h-9.904c-2.049 0-3.715 1.682-3.715 3.75V7c0 .69.555 1.25 1.238 1.25h2.477v3.729a25.87 25.87 0 0 0-9.898 4.225l-2.846-2.873a3.693 3.693 0 0 0-5.252 0 3.78 3.78 0 0 0 0 5.303l2.665 2.691A26.381 26.381 0 0 0 0 37.75C0 52.224 11.664 64 26 64s26-11.776 26-26.25a26.381 26.381 0 0 0-5.717-16.425zm-.836-6.226a1.231 1.231 0 0 1 1.75 0 1.26 1.26 0 0 1 0 1.767L44.64 19.45a26.427 26.427 0 0 0-1.81-1.707l2.618-2.643zM19.81 3.75c0-.69.555-1.25 1.238-1.25h9.904c.683 0 1.238.56 1.238 1.25v2H19.81v-2zm8.666 4.5v3.368a26.384 26.384 0 0 0-4.952 0V8.25h4.952zM4.802 15.099a1.231 1.231 0 0 1 1.751 0l2.618 2.643c-.63.54-1.234 1.11-1.81 1.707l-2.559-2.583a1.26 1.26 0 0 1 0-1.767zM26 61.5c-12.971 0-23.524-10.654-23.524-23.75a23.854 23.854 0 0 1 5.849-15.673 23.818 23.818 0 0 1 3.445-3.241 23.387 23.387 0 0 1 10.7-4.571 23.69 23.69 0 0 1 7.06 0 23.39 23.39 0 0 1 10.7 4.57 23.84 23.84 0 0 1 3.445 3.242 23.854 23.854 0 0 1 5.849 15.673C49.524 50.846 38.97 61.5 26 61.5z"></path><path d="M26.5 42c1.93 0 3.5-1.73 3.5-3.857 0-1.676-.975-3.105-2.333-3.636v-9.221c0-.71-.523-1.286-1.167-1.286s-1.167.576-1.167 1.286v9.22c-1.358.532-2.333 1.96-2.333 3.637C23 40.27 24.57 42 26.5 42zm0-5.143c.643 0 1.167.577 1.167 1.286 0 .709-.524 1.286-1.167 1.286s-1.167-.577-1.167-1.286c0-.71.524-1.286 1.167-1.286z"></path><path d="M39.638 24.878a1.168 1.168 0 0 0-.132-.135 18.497 18.497 0 0 0-7.773-4.691 1.23 1.23 0 0 0-1.533.85c-.192.665.18 1.365.834 1.561 2.16.65 4.174 1.774 5.89 3.274l-.831.848a1.276 1.276 0 0 0 0 1.779 1.218 1.218 0 0 0 1.744 0l.834-.85a16.356 16.356 0 0 1 3.815 9.37H41.3c-.681 0-1.233.564-1.233 1.258 0 .694.552 1.257 1.233 1.257h1.186a16.355 16.355 0 0 1-3.815 9.371l-.834-.85a1.218 1.218 0 0 0-1.744 0 1.275 1.275 0 0 0 0 1.778l.833.85a15.73 15.73 0 0 1-9.193 3.89v-1.21c0-.694-.552-1.257-1.233-1.257s-1.233.563-1.233 1.257v1.21a15.726 15.726 0 0 1-9.193-3.89l.833-.85a1.275 1.275 0 0 0 0-1.778 1.218 1.218 0 0 0-1.744 0l-.834.85a16.356 16.356 0 0 1-3.815-9.371H11.7c.681 0 1.233-.563 1.233-1.257 0-.695-.552-1.257-1.233-1.257h-1.186a16.356 16.356 0 0 1 3.815-9.372l.834.85a1.218 1.218 0 0 0 1.744 0 1.276 1.276 0 0 0 0-1.778l-.832-.848a15.978 15.978 0 0 1 5.891-3.274 1.261 1.261 0 0 0 .834-1.562 1.23 1.23 0 0 0-1.533-.85 18.491 18.491 0 0 0-7.771 4.69 1.24 1.24 0 0 0-.074.069l-.06.067C9.905 28.435 8 33.142 8 38.142s1.904 9.705 5.362 13.263c.019.023.038.047.06.068.021.022.043.041.065.061C16.978 55.06 21.595 57 26.5 57c4.904 0 9.521-1.94 13.012-5.465.022-.02.045-.04.066-.062.021-.02.04-.044.06-.066C43.095 47.848 45 43.142 45 38.142s-1.904-9.706-5.362-13.264z"></path><path d="M26 22c.552 0 1-.672 1-1.5s-.448-1.5-1-1.5-1 .672-1 1.5.448 1.5 1 1.5z"></path></g></svg> 