<?xml version="1.0" encoding="UTF-8"?> <svg xmlns="http://www.w3.org/2000/svg" xmlns:xlink="http://www.w3.org/1999/xlink" width="45px" height="64px" viewBox="0 0 45 64"><!-- Generator: Sketch 59.1 (86144) - https://sketch.com --><title>customer-service</title><desc>Created with Sketch.</desc><g id="-" stroke="none" stroke-width="1" fill="none" fill-rule="evenodd"><g id="P200_TIENDA_ONLINE_masonri" transform="translate(-1568.000000, -3245.000000)" fill="#000000" fill-rule="nonzero"><g id="customer-service" transform="translate(1568.000000, 3245.000000)"><path d="M11.833375,42.666625 C5.364,42.666625 0.1,47.930625 0.1,54.4 L0.1,64 L2.233375,64 L2.233375,54.4 C2.233375,49.106125 6.540625,44.8 11.833375,44.8 L15.033375,44.8 L15.033375,42.666625 L11.833375,42.666625 L11.833375,42.666625 Z" id="Path"></path><path d="M26.766625,37.333375 L26.766625,43.58725 L22.5,58.94725 L18.233375,43.58725 L18.233375,37.333375 L16.1,37.333375 L16.1,43.733375 C16.1,43.830375 16.11275,43.926375 16.1395,44.01925 L21.472875,63.21925 C21.60075,63.68 22.021125,64 22.5,64 C22.978875,64 23.40025,63.68 23.52825,63.21925 L28.861625,44.01925 C28.886125,43.9265 28.9,43.8305 28.9,43.733375 L28.9,37.333375 L26.766625,37.333375 L26.766625,37.333375 Z" id="Path"></path><circle id="Oval" cx="16.1" cy="22.4" r="2.133375"></circle><circle id="Oval" cx="28.9" cy="22.4" r="2.133375"></circle><path d="M26.0125,29.1115 C24.837,30.285875 23.2765,30.93225 21.614625,30.933375 L20.366625,30.933375 L20.366625,33.06675 L21.614625,33.06675 C23.846125,33.06575 25.943125,32.197375 27.52075,30.620875 L26.0125,29.1115 Z" id="Path"></path><path d="M22.0925,26.666625 L23.4535,23.9445 L21.54525,22.989875 L19.411875,27.2565 C19.2465,27.587125 19.264625,27.97975 19.45875,28.294375 C19.654,28.608 19.996375,28.8 20.3665,28.8 L23.5665,28.8 L23.5665,26.666625 L22.0925,26.666625 L22.0925,26.666625 Z" id="Path"></path><path d="M33.166625,18.133375 L33.166625,26.66675 C33.166625,32.548375 28.3815,37.333375 22.5,37.333375 C16.6185,37.333375 11.833375,32.54825 11.833375,26.66675 L9.7,26.66675 C9.7,33.724875 15.441875,39.46675 22.5,39.46675 C29.558125,39.46675 35.3,33.724875 35.3,26.66675 L35.3,18.133375 L33.166625,18.133375 Z" id="Path"></path><path d="M37.434375,26.666625 L37.434375,32.1375 C37.433375,33.09 37.014125,33.985 36.281375,34.594 L31.417375,38.647375 L32.78375,40.286875 L37.64675,36.2335 C38.867,35.218 39.56675,33.72475 39.567875,32.138625 L39.567875,26.666625 L37.434375,26.666625 L37.434375,26.666625 Z" id="Path"></path><path d="M22.5,0 C12.501125,0 4.366625,8.134375 4.366625,18.133375 L4.366625,20.26675 L6.5,20.26675 L6.5,18.133375 C6.5,9.311 13.677625,2.133375 22.5,2.133375 C31.322375,2.133375 38.5,9.311 38.5,18.133375 L38.5,20.26675 L40.633375,20.26675 L40.633375,18.133375 C40.633375,8.134375 32.499,0 22.5,0 Z" id="Path"></path><path d="M36.366625,18.133375 L34.23325,18.133375 C33.643375,18.133375 33.166625,18.61125 33.166625,19.2 L33.166625,27.733375 C33.166625,28.322125 33.643375,28.8 34.23325,28.8 L36.366625,28.8 C39.307375,28.8 41.7,26.4075 41.7,23.466625 C41.7,20.525875 39.3075,18.133375 36.366625,18.133375 Z M36.366625,26.666625 L35.3,26.666625 L35.3,20.266625 L36.366625,20.266625 C38.130875,20.266625 39.566625,21.702375 39.566625,23.466625 C39.566625,25.230875 38.130875,26.666625 36.366625,26.666625 Z" id="Shape"></path><path d="M8.633375,26.666625 C6.869125,26.666625 5.433375,25.230875 5.433375,23.466625 C5.433375,21.702375 6.869125,20.266625 8.633375,20.266625 L8.633375,18.13325 C5.692625,18.13325 3.3,20.52575 3.3,23.466625 C3.3,26.407375 5.6925,28.8 8.633375,28.8 L10.76675,28.8 L10.76675,26.666625 L8.633375,26.666625 Z" id="Path"></path><rect id="Rectangle" x="9.7" y="21.333375" width="2.133375" height="6.4"></rect><path d="M22.5,4.266625 C14.854125,4.266625 8.633375,10.487375 8.633375,18.13325 L8.633375,22.4 C8.633375,22.770125 8.825375,23.1125 9.139,23.30775 C9.31075,23.413375 9.504875,23.466625 9.700125,23.466625 C9.863375,23.466625 10.0265,23.42925 10.175875,23.354625 L28.455375,14.215375 C29.955125,16.74975 32.18225,18.836125 34.82225,20.154625 C35.155,20.32 35.5465,20.301875 35.860125,20.10775 C36.17475,19.9125 36.36675,19.570125 36.36675,19.2 L36.36675,18.133375 C36.36675,10.4875 30.145875,4.266625 22.5,4.266625 Z M29.854625,12.32425 C29.72875,12.0715 29.506875,11.878375 29.238125,11.78875 C28.970375,11.698125 28.677,11.7205 28.42325,11.846375 L10.76675,20.674125 L10.76675,18.133375 C10.76675,11.664 16.03075,6.4 22.500125,6.4 C28.696375,6.4 33.7855,11.226625 34.20575,17.318375 C32.366625,16.053375 30.854125,14.325375 29.854625,12.32425 Z" id="Shape"></path><path d="M15.956,49.59675 C15.732,49.214875 15.293625,49.01225 14.8595,49.082625 L11.209375,49.690625 L18.000875,41.201 L16.33475,39.867625 L7.801375,50.53425 C7.525125,50.879875 7.489875,51.359875 7.713875,51.740625 C7.93675,52.121375 8.373125,52.319875 8.809375,52.252625 L14.483,51.3065 L21.5785,63.47075 L23.42275,62.396625 L15.956,49.59675 Z" id="Path"></path><path d="M33.166625,42.666625 L29.966625,42.666625 L29.966625,44.8 L33.166625,44.8 C38.4605,44.8 42.766625,49.106125 42.766625,54.4 L42.766625,64 L44.9,64 L44.9,54.4 C44.9,47.930625 39.636,42.666625 33.166625,42.666625 Z" id="Path"></path><path d="M37.20075,50.533375 L28.667375,39.86675 L27.00025,41.2 L33.79275,49.689625 L30.1415,49.081625 C29.710625,49.014375 29.269,49.213875 29.045,49.59575 L21.578375,62.39575 L23.421625,63.471 L30.518125,51.30675 L36.19275,52.251875 C36.6215,52.320125 37.063125,52.12175 37.287125,51.739875 C37.51125,51.357875 37.477125,50.879 37.20075,50.533375 Z" id="Path"></path><path d="M37.433375,59.733375 L28.9,59.733375 C28.310125,59.733375 27.833375,60.210125 27.833375,60.8 L27.833375,64 L29.96675,64 L29.96675,61.866625 L36.36675,61.866625 L36.36675,64 L38.5,64 L38.5,60.8 C38.5,60.210125 38.02325,59.733375 37.433375,59.733375 Z" id="Path"></path><rect id="Rectangle" x="32.1" y="57.6" width="2.133375" height="3.2"></rect></g></g></g></svg> 