<?xml version="1.0" encoding="UTF-8"?> <svg xmlns="http://www.w3.org/2000/svg" width="64" height="46" viewBox="0 0 64 46"><g fill="#000" fill-rule="nonzero"><path d="M14.5 33A6.507 6.507 0 0 0 8 39.5c0 3.585 2.915 6.5 6.5 6.5s6.5-2.915 6.5-6.5-2.915-6.5-6.5-6.5zm0 10.833a4.338 4.338 0 0 1-4.333-4.333 4.338 4.338 0 0 1 4.333-4.333 4.338 4.338 0 0 1 4.333 4.333 4.338 4.338 0 0 1-4.333 4.333zM51.5 33a6.507 6.507 0 0 0-6.5 6.5c0 3.585 2.915 6.5 6.5 6.5s6.5-2.915 6.5-6.5-2.915-6.5-6.5-6.5zm0 10.833a4.338 4.338 0 0 1-4.333-4.333 4.338 4.338 0 0 1 4.333-4.333 4.338 4.338 0 0 1 4.333 4.333 4.338 4.338 0 0 1-4.333 4.333z"></path><path d="M63.834 27.53l-9.41-15.037a1.04 1.04 0 0 0-.879-.493h-11.5c-.578 0-1.045.481-1.045 1.074v26.852c0 .594.467 1.074 1.045 1.074h4.182v-2.148h-3.136V14.148h9.884l8.934 14.279v10.425h-5.227V41h6.273c.578 0 1.045-.48 1.045-1.074V28.111c0-.205-.057-.408-.166-.58z"></path><path d="M47.125 25.818v-7.636h8.5V16h-9.563c-.587 0-1.062.489-1.062 1.09v9.82c0 .602.475 1.09 1.062 1.09H62v-2.182H47.125zM41.925 4H1.075C.482 4 0 4.474 0 5.059V38.94C0 39.527.482 40 1.075 40h8.6v-2.118H2.15V6.118h38.7v31.764H20.425V40h21.5C42.52 40 43 39.527 43 38.941V5.06C43 4.474 42.52 4 41.925 4z"></path><path d="M1 34h6v2H1zM22 34h18v2H22zM59 34h4v2h-4zM4 9h37v2H4zM14 39h2v2h-2zM50 39h2v2h-2zM4 0h15v2H4zM0 0h2v2H0z"></path></g></svg> 