<?xml version="1.0" encoding="UTF-8"?> <svg xmlns="http://www.w3.org/2000/svg" xmlns:xlink="http://www.w3.org/1999/xlink" width="50px" height="50px" viewBox="0 0 50 50"><!-- Generator: Sketch 58 (84663) - https://sketch.com --><title>Shape</title><desc>Created with Sketch.</desc><g id="Symbols" stroke="none" stroke-width="1" fill="none" fill-rule="evenodd"><g id="ORGANISMS/FOOTER" transform="translate(-1235.000000, -383.000000)" fill="#DB291C" fill-rule="nonzero"><path d="M1260,383 C1246.21506,383 1235,394.215057 1235,408 C1235,421.783936 1246.21506,433 1260,433 C1273.78394,433 1285,421.783936 1285,408 C1285,394.215057 1273.78595,383 1260,383 Z M1271.15262,402.278176 C1271.1637,402.5259 1271.16974,402.775638 1271.16974,403.025377 C1271.16974,410.6293 1265.38347,419.394304 1254.79679,419.394304 C1251.54717,419.394304 1248.52211,418.444695 1245.9764,416.811327 C1246.42653,416.864698 1246.88472,416.891888 1247.34895,416.891888 C1250.04572,416.891888 1252.52598,415.971482 1254.49569,414.428744 C1251.97817,414.382422 1249.85237,412.718843 1249.12028,410.431926 C1249.47072,410.498389 1249.83223,410.535648 1250.2018,410.535648 C1250.72646,410.535648 1251.236,410.467172 1251.71836,410.335253 C1249.08604,409.807581 1247.10324,407.482397 1247.10324,404.692983 C1247.10324,404.668815 1247.10324,404.64364 1247.10425,404.620479 C1247.87964,405.050471 1248.76682,405.31028 1249.70938,405.339483 C1248.16664,404.309313 1247.15057,402.547047 1247.15057,400.551156 C1247.15057,399.495811 1247.43354,398.506928 1247.92899,397.657013 C1250.76573,401.139249 1255.00725,403.429187 1259.78853,403.670869 C1259.68984,403.248933 1259.6405,402.810884 1259.6405,402.358737 C1259.6405,399.181624 1262.21643,396.604689 1265.39354,396.604689 C1267.04906,396.604689 1268.54246,397.303553 1269.59377,398.421332 C1270.90591,398.163538 1272.13446,397.686216 1273.24921,397.024611 C1272.8162,398.368968 1271.90687,399.495811 1270.71558,400.208773 C1271.88069,400.069806 1272.99243,399.761661 1274.02058,399.303472 C1273.25324,400.45549 1272.27745,401.469548 1271.15262,402.278176 Z" id="Shape"></path></g></g></svg> 