<?xml version="1.0" encoding="UTF-8"?> <svg xmlns="http://www.w3.org/2000/svg" xmlns:xlink="http://www.w3.org/1999/xlink" width="50px" height="50px" viewBox="0 0 50 50"><!-- Generator: Sketch 58 (84663) - https://sketch.com --><title>Shape</title><desc>Created with Sketch.</desc><g id="Symbols" stroke="none" stroke-width="1" fill="none" fill-rule="evenodd"><g id="ORGANISMS/FOOTER" transform="translate(-1100.000000, -383.000000)" fill="#DB291C" fill-rule="nonzero"><path d="M1125,383 C1111.21506,383 1100,394.215057 1100,408 C1100,421.783936 1111.21506,433 1125,433 C1138.78394,433 1150,421.783936 1150,408 C1150,394.215057 1138.78595,383 1125,383 Z M1131.21727,408.880126 L1127.14996,408.880126 C1127.14996,415.378353 1127.14996,423.377024 1127.14996,423.377024 L1121.12302,423.377024 C1121.12302,423.377024 1121.12302,415.455893 1121.12302,408.880126 L1118.25808,408.880126 L1118.25808,403.756465 L1121.12302,403.756465 L1121.12302,400.442399 C1121.12302,398.068879 1122.25087,394.360066 1127.20535,394.360066 L1131.67143,394.377185 L1131.67143,399.350802 C1131.67143,399.350802 1128.95754,399.350802 1128.42987,399.350802 C1127.9022,399.350802 1127.15198,399.614638 1127.15198,400.746516 L1127.15198,403.757472 L1131.74394,403.757472 L1131.21727,408.880126 Z" id="Shape"></path></g></g></svg> 