<?xml version="1.0" encoding="UTF-8"?> <svg xmlns="http://www.w3.org/2000/svg" xmlns:xlink="http://www.w3.org/1999/xlink" width="50px" height="50px" viewBox="0 0 50 50"><!-- Generator: Sketch 58 (84663) - https://sketch.com --><title>Group</title><desc>Created with Sketch.</desc><g id="Symbols" stroke="none" stroke-width="1" fill="none" fill-rule="evenodd"><g id="ORGANISMS/FOOTER" transform="translate(-1370.000000, -383.000000)" fill="#DB291C" fill-rule="nonzero"><g id="Group" transform="translate(1370.000000, 383.000000)"><polygon id="Path" points="13.1 26.7765306 15.0770408 26.7765306 15.0770408 37.4770408 16.947449 37.4770408 16.947449 26.7765306 18.9612245 26.7765306 18.9612245 25.0239796 13.1 25.0239796"></polygon><path d="M28.9153061,28.0846939 C28.2969388,28.0846939 27.719898,28.422449 27.177551,29.0908163 L27.177551,25.0234694 L25.4964286,25.0234694 L25.4964286,37.4770408 L27.177551,37.4770408 L27.177551,36.5780612 C27.7403061,37.272449 28.3168367,37.605102 28.9153061,37.605102 C29.5841837,37.605102 30.0341837,37.2530612 30.2586735,36.5622449 C30.3714286,36.1688776 30.4290816,35.5510204 30.4290816,34.6923469 L30.4290816,30.997449 C30.4290816,30.1188776 30.3714286,29.5056122 30.2586735,29.1326531 C30.0346939,28.4367347 29.5836735,28.0846939 28.9153061,28.0846939 Z M28.7469388,34.8239796 C28.7469388,35.6627551 28.5010204,36.0760204 28.0153061,36.0760204 C27.7392857,36.0760204 27.4581633,35.9438776 27.1770408,35.6622449 L27.1770408,30.0071429 C27.4581633,29.7290816 27.7392857,29.597449 28.0153061,29.597449 C28.5005102,29.597449 28.7469388,30.0270408 28.7469388,30.8637755 L28.7469388,34.8239796 Z" id="Shape"></path><path d="M22.3591837,35.2892857 C21.9862245,35.8163265 21.6336735,36.0760204 21.2959184,36.0760204 C21.0714286,36.0760204 20.9433673,35.9438776 20.902551,35.6826531 C20.8872449,35.6285714 20.8872449,35.4234694 20.8872449,35.0295918 L20.8872449,28.1979592 L19.2056122,28.1979592 L19.2056122,35.5341837 C19.2056122,36.1897959 19.2622449,36.6326531 19.3540816,36.9142857 C19.5229592,37.3846939 19.8964286,37.605102 20.4372449,37.605102 C21.0561224,37.605102 21.6908163,37.2316327 22.3591837,36.4653061 L22.3591837,37.477551 L24.0418367,37.477551 L24.0418367,28.1979592 L22.3591837,28.1979592 L22.3591837,35.2892857 L22.3591837,35.2892857 Z" id="Path"></path><path d="M24.9362245,-1.42108547e-14 C11.1642857,-1.42108547e-14 -2.4158453e-13,11.1642857 -2.4158453e-13,24.9362245 C-2.4158453e-13,38.7081633 11.1642857,49.872449 24.9362245,49.872449 C38.7081633,49.872449 49.872449,38.7081633 49.872449,24.9362245 C49.872449,11.1642857 38.7081633,-1.42108547e-14 24.9362245,-1.42108547e-14 Z M27.7096939,11.6632653 L29.4040816,11.6632653 L29.4040816,18.5673469 C29.4040816,18.9658163 29.4040816,19.172449 29.4244898,19.2280612 C29.4617347,19.4913265 29.5954082,19.6260204 29.8229592,19.6260204 C30.1627551,19.6260204 30.5193878,19.3627551 30.8964286,18.8306122 L30.8964286,11.6632653 L32.5954082,11.6632653 L32.5954082,21.0403061 L30.8964286,21.0403061 L30.8964286,20.0178571 C30.219898,20.7933673 29.575,21.1693878 28.955102,21.1693878 C28.4081633,21.1693878 28.0306122,20.947449 27.8602041,20.4729592 C27.7663265,20.1887755 27.7096939,19.7403061 27.7096939,19.0785714 L27.7096939,11.6632653 L27.7096939,11.6632653 Z M21.2923469,14.7209184 C21.2923469,13.7183673 21.4627551,12.9857143 21.8239796,12.5117347 C22.2938776,11.8704082 22.9556122,11.55 23.802551,11.55 C24.6535714,11.55 25.3147959,11.8704082 25.7846939,12.5117347 C26.1408163,12.9852041 26.3112245,13.7183673 26.3112245,14.7209184 L26.3112245,18.0045918 C26.3112245,19.0015306 26.1408163,19.7408163 25.7846939,20.2096939 C25.3147959,20.8494898 24.6535714,21.1693878 23.802551,21.1693878 C22.9556122,21.1693878 22.2938776,20.8494898 21.8239796,20.2096939 C21.4627551,19.7408163 21.2923469,19.0010204 21.2923469,18.0045918 L21.2923469,14.7209184 Z M16.7484694,8.45714286 L18.0862245,13.3984694 L19.3714286,8.45714286 L21.2770408,8.45714286 L19.0102041,15.9443878 L19.0102041,21.0408163 L17.1265306,21.0408163 L17.1265306,15.9443878 C16.9556122,15.0413265 16.5785714,13.7183673 15.9739796,11.9632653 C15.5770408,10.7954082 15.1632653,9.62397959 14.7663265,8.45714286 L16.7484694,8.45714286 Z M38.3602041,38.2964286 C38.0193878,39.7755102 36.8096939,40.8673469 35.3530612,41.030102 C31.902551,41.4153061 28.4122449,41.4173469 24.9346939,41.4153061 C21.4586735,41.4173469 17.9663265,41.4153061 14.5168367,41.030102 C13.0602041,40.8673469 11.85,39.7760204 11.5102041,38.2964286 C11.025,36.1897959 11.025,33.8892857 11.025,31.719898 C11.025,29.5505102 11.0311224,27.2505102 11.5158163,25.1433673 C11.8561224,23.6637755 13.0653061,22.5719388 14.5219388,22.4096939 C17.9719388,22.0244898 21.4637755,22.022449 24.9408163,22.0244898 C28.4168367,22.022449 31.9086735,22.0244898 35.3586735,22.4096939 C36.8153061,22.572449 38.0255102,23.6637755 38.3668367,25.1433673 C38.8505102,27.2505102 38.8474492,29.5505102 38.8474492,31.719898 C38.8474492,33.8892857 38.8454082,36.1897959 38.3602041,38.2964286 Z" id="Shape"></path><path d="M34.2704082,28.0846939 C33.4102041,28.0846939 32.7423469,28.4005102 32.2566327,29.0357143 C31.9,29.505102 31.7372449,30.2306122 31.7372449,31.2219388 L31.7372449,34.472449 C31.7372449,35.4586735 31.9193878,36.1892857 32.277551,36.6540816 C32.7627551,37.2877551 33.4326531,37.6045918 34.3122449,37.6045918 C35.1903061,37.6045918 35.8795918,37.272449 36.344898,36.5984694 C36.5489796,36.3005102 36.6816327,35.9632653 36.7377551,35.5908163 C36.7535714,35.422449 36.7734694,35.0494898 36.7734694,34.5071429 L36.7734694,34.2627551 L35.0586735,34.2627551 C35.0586735,34.9362245 35.0367347,35.3102041 35.0219388,35.4015306 C34.9260204,35.8510204 34.6841837,36.0755102 34.2704082,36.0755102 C33.6928571,36.0755102 33.4102041,35.6469388 33.4102041,34.7887755 L33.4102041,33.1428571 L36.7734694,33.1428571 L36.7734694,31.2209184 C36.7734694,30.2295918 36.6056122,29.5040816 36.2530612,29.0346939 C35.7831633,28.4010204 35.1142857,28.0846939 34.2704082,28.0846939 Z M35.0928571,31.7438776 L33.4112245,31.7438776 L33.4112245,30.8852041 C33.4112245,30.0270408 33.6933673,29.5979592 34.255102,29.5979592 C34.8112245,29.5979592 35.0928571,30.027551 35.0928571,30.8852041 L35.0928571,31.7438776 L35.0928571,31.7438776 Z" id="Shape"></path><path d="M23.7704082,19.6255102 C24.3178571,19.6255102 24.5806122,19.1913265 24.5806122,18.3239796 L24.5806122,14.3795918 C24.5806122,13.5117347 24.3178571,13.0795918 23.7704082,13.0795918 C23.222449,13.0795918 22.9591837,13.5122449 22.9591837,14.3795918 L22.9591837,18.3239796 C22.9591837,19.1918367 23.222449,19.6255102 23.7704082,19.6255102 Z" id="Path"></path></g></g></g></svg> 